<svg id="Layer_1" data-name="Layer 1" xmlns="http://www.w3.org/2000/svg" xmlns:xlink="http://www.w3.org/1999/xlink" viewBox="0 0 512 512"><defs><linearGradient id="linear-gradient" x1="256.64" y1="700.13" x2="256.64" y2="-189.53" gradientUnits="userSpaceOnUse"><stop offset="0" stop-color="#231f20"/><stop offset="1" stop-color="#58595b"/></linearGradient><linearGradient id="linear-gradient-2" x1="424.27" y1="289.2" x2="424.27" y2="-113.76" xlink:href="#linear-gradient"/><linearGradient id="linear-gradient-3" x1="84.98" y1="622.21" x2="84.98" y2="231.83" xlink:href="#linear-gradient"/></defs><title>edit</title><path d="M189.39,448.94a22.3,22.3,0,0,0,3.53-2.54L450.3,189.1,322.88,61.66,65.48,319A20.11,20.11,0,0,0,63,322.51Z" fill-rule="evenodd" fill="url(#linear-gradient)"/><path d="M504.38,98.08,413.89,7.63a26.23,26.23,0,0,0-37,0L336.53,48,464,175.43l40.39-40.37A26.23,26.23,0,0,0,504.38,98.08Z" fill-rule="evenodd" fill="url(#linear-gradient-2)"/><path d="M55.16,342l-54.4,160c-2.58,7.62,1.55,11.75,9.14,9.14L170,456.84Z" fill-rule="evenodd" fill="url(#linear-gradient-3)"/></svg>